Coordinates
version=1
nRows=19
nColumns=24
inDegrees=yes

Units are S.I. units (second, meters, Newtons, ...)
Angles are in degrees.

endheader
time	pelvis_tilt	pelvis_list	pelvis_rotation	pelvis_tx	pelvis_ty	pelvis_tz	hip_flexion_r	hip_adduction_r	hip_rotation_r	knee_angle_r	ankle_angle_r	subtalar_angle_r	mtp_angle_r	hip_flexion_l	hip_adduction_l	hip_rotation_l	knee_angle_l	ankle_angle_l	subtalar_angle_l	mtp_angle_l	lumbar_extension	lumbar_bending	lumbar_rotation
      4.89000000	      1.18927756	     -1.20180139	      8.41622453	     -0.37575991	      1.04893781	      0.21151704	      9.28350752	      3.90082640	    -10.88727082	    -17.31609496	     13.56593121	    -14.50467866	      0.00000000	     10.59926817	     -1.79849455	      3.92160687	    -66.07789739	    -16.42159963	    -39.75803956	      0.00000000	    -13.79555236	     -1.77286254	    -14.94606340
      4.90000000	      0.77134140	     -0.28772501	      8.86441207	     -0.35960413	      1.05203566	      0.21212340	      7.99826524	      3.23399663	    -10.68000415	    -16.08189904	     13.32939216	    -15.11961948	      0.00000000	     12.72675091	     -0.18941831	      4.51099169	    -65.73605504	    -14.37204348	    -39.24285229	      0.00000000	    -13.55944458	     -3.13941739	    -14.20037259
      4.91000000	      0.37126233	      0.61441348	      9.19781293	     -0.34348469	      1.05497376	      0.21275345	      6.68772060	      2.58421774	    -10.47434728	    -14.82350137	     13.01603223	    -15.68587752	      0.00000000	     14.69169196	      1.35284040	      4.82907092	    -64.97351148	    -12.33364049	    -38.35849490	      0.00000000	    -13.40635193	     -4.48830332	    -13.36304303
      4.92000000	      0.00147109	      1.43635736	      9.41566699	     -0.32739099	      1.05768224	      0.21336972	      5.36088814	      2.01250400	    -10.32453371	    -13.55735789	     12.64655021	    -16.14681323	      0.00000000	     16.50634873	      2.74147935	      4.91578468	    -63.83083345	    -10.35081221	    -37.21983601	      0.00000000	    -13.33027323	     -5.72376783	    -12.43647993
      4.93000000	     -0.31696472	      2.10945826	      9.53386841	     -0.31130412	      1.06011135	      0.21395139	      4.01176154	      1.58843590	    -10.27607421	    -12.29089738	     12.21130350	    -16.48873512	      0.00000000	     18.17396373	      3.89220154	      4.82393438	    -62.35186382	     -8.41774513	    -35.88028518	      0.00000000	    -13.32824328	     -6.76140920	    -11.43337391
      4.94000000	     -0.56653569	      2.60946505	      9.54043739	     -0.29521173	      1.06224549	      0.21446707	      2.63544350	      1.33370497	    -10.34109625	    -11.03997452	     11.75543060	    -16.64133303	      0.00000000	     19.67936793	      4.77570800	      4.58310396	    -60.55461403	     -6.62025297	    -34.47155157	      0.00000000	    -13.40006932	     -7.55738220	    -10.36197708
      4.95000000	     -0.74043832	      2.92257176	      9.44141233	     -0.27908545	      1.06406251	      0.21489868	      1.23083151	      1.26197429	    -10.50344493	     -9.81699730	     11.30952291	    -16.60125067	      0.00000000	     21.01109377	      5.37798650	      4.23066004	    -58.45033510	     -4.95534267	    -33.07516441	      0.00000000	    -13.53199621	     -8.09457991	     -9.25143770
      4.96000000	     -0.84405147	      3.01881588	      9.24257063	     -0.26293321	      1.06552460	      0.21526072	     -0.18626618	      1.39960239	    -10.78191231	     -8.62837092	     10.78086010	    -16.37013052	      0.00000000	     22.19027049	      5.66127504	      3.78141775	    -56.07899263	     -3.45406932	    -31.58104017	      0.00000000	    -13.71015389	     -8.34720322	     -8.08233679
      4.97000000	     -0.87096131	      2.94760355	      8.92507233	     -0.24671291	      1.06663860	      0.21556463	     -1.62246541	      1.69254856	    -11.08345840	     -7.50367733	     10.28780215	    -15.95719080	      0.00000000	     23.17668135	      5.67550623	      3.23233524	    -53.41653394	     -2.10444295	    -30.06876175	      0.00000000	    -13.93173481	     -8.37471157	     -6.86830830
      4.98000000	     -0.82967208	      2.74110137	      8.47022043	     -0.23039225	      1.06738815	      0.21586656	     -3.06847150	      2.09972745	    -11.33333984	     -6.46453409	      9.85134120	    -15.37858226	      0.00000000	     23.96070188	      5.44425620	      2.56370708	    -50.45696945	     -0.89368123	    -28.52590991	      0.00000000	    -14.18434236	     -8.22899810	     -5.60593321
      4.99000000	     -0.75113631	      2.43352754	      7.88380989	     -0.21396370	      1.06773571	      0.21619188	     -4.49490861	      2.57460134	    -11.44053899	     -5.52898807	      9.47333485	    -14.67466408	      0.00000000	     24.55665458	      5.00939677	      1.77127537	    -47.19349924	      0.20350817	    -26.92006723	      0.00000000	    -14.43883256	     -7.96747087	     -4.34224801
      5.00000000	     -0.66414423	      2.05974377	      7.18012168	     -0.19741561	      1.06764603	      0.21655690	     -5.85370854	      3.06481984	    -11.43320367	     -4.75098662	      9.17230680	    -13.95638888	      0.00000000	     24.97748008	      4.42025473	      0.86365009	    -43.62155184	      1.21636820	    -25.17556083	      0.00000000	    -14.66332108	     -7.63640038	     -3.04929766
      5.01000000	     -0.59363997	      1.65318265	      6.34880632	     -0.18072978	      1.06710460	      0.21701780	     -7.12804390	      3.53077280	    -11.20301116	     -4.13252119	      8.94587208	    -13.27130560	      0.00000000	     25.22739152	      3.72015815	     -0.16368380	    -39.73102000	      2.10494051	    -23.35130277	      0.00000000	    -14.83515981	     -7.29815805	     -1.76291184
      5.02000000	     -0.55785284	      1.21192615	      5.40647385	     -0.16390313	      1.06608619	      0.21757220	     -8.28936084	      3.96900863	    -10.76735480	     -3.69722634	      8.77965236	    -12.71058729	      0.00000000	     25.32712350	      2.93003421	     -1.27751551	    -35.55272498	      2.88527881	    -21.42207840	      0.00000000	    -14.93023758	     -6.94591487	     -0.45964523
      5.03000000	     -0.56179004	      0.75293905	      4.35438908	     -0.14690467	      1.06460440	      0.21824134	     -9.35544669	      4.36544077	    -10.08118661	     -3.41509235	      8.64197003	    -12.30394410	      0.00000000	     25.28395516	      2.07890676	     -2.47157842	    -31.12696418	      3.50647720	    -19.47852447	      0.00000000	    -14.94319041	     -6.60018405	      0.80636073
      5.04000000	     -0.59383571	      0.26873924	      3.20559453	     -0.12972182	      1.06269373	      0.21900583	    -10.34686072	      4.73039787	     -9.18278271	     -3.27467661	      8.50087952	    -12.08272226	      0.00000000	     25.10643664	      1.18381781	     -3.68146797	    -26.53075415	      3.95833479	    -17.58974344	      0.00000000	    -14.88984425	     -6.24441709	      2.03371707
      5.05000000	     -0.63622403	     -0.24649112	      1.99294008	     -0.11234899	      1.06040906	      0.21981838	    -11.30000911	      5.07731365	     -8.11895254	     -3.24669660	      8.33018203	    -12.06168034	      0.00000000	     24.80902256	      0.26637233	     -4.79747030	    -21.86946156	      4.21867415	    -15.89061369	      0.00000000	    -14.79712935	     -5.86107260	      3.23223190
      5.06000000	     -0.72600871	     -0.81952447	      0.72965996	     -0.09478538	      1.05773394	      0.22064210	    -12.21997067	      5.44343365	     -6.72312721	     -3.25453344	      7.97202507	    -12.51799266	      0.00000000	     24.47741206	     -0.68647932	     -5.67119784	    -17.28069768	      4.27672498	    -14.56616303	      0.00000000	    -14.62518764	     -5.40393473	      4.39683362
      5.07000000	     -0.65423868	     -1.37590559	     -0.51876989	     -0.07697987	      1.05504014	      0.22135662	    -13.29141025	      5.73723024	     -5.59495386	     -3.36468990	      7.78263449	    -12.60945539	      0.00000000	     23.87693638	     -1.57480016	     -6.06226701	    -12.81157826	      4.03613316	    -13.88819583	      0.00000000	    -14.64696220	     -4.94531978	      5.44205955
